<svg xmlns="http://www.w3.org/2000/svg" viewBox="0 0 275 275">
  <path fill="none" d="M-1-1h277v277H-1z"/>
  <g>
    <path fill="#f7f7f7" d="M137.5 274.8C61.8 274.8.2 213.2.2 137.5S61.8.2 137.5.2s137.3 61.6 137.3 137.3-61.6 137.3-137.3 137.3zm0-245.2a108 108 0 000 215.8 108 108 0 000-215.8z" opacity=".3"/>
    <path fill="#f67e64" d="M171.2 135.4l-32.6-69.2c-.4-.9-1.7-.9-2.2 0l-32.7 69.3c-.3.6-.4 1.3-.4 2h68.4c0-.7-.2-1.4-.5-2.1z"/>
    <path fill="#fcfcfc" d="M171.2 139.5l-32.6 69.2c-.4.9-1.7.9-2.2 0l-32.7-69.3c-.3-.6-.4-1.3-.4-2h68.4c0 .8-.2 1.5-.5 2.1z"/>
    <path d="M62.7 40.2a122.7 122.7 0 10149.7 194.6A122.7 122.7 0 0062.7 40.2zm108.4 99.3l-32.6 69.2c-.4.9-1.7.9-2.2 0l-32.7-69.3a4.7 4.7 0 010-4l32.7-69.3c.4-.9 1.7-.9 2.2 0l32.6 69.2c.6 1.4.6 2.9 0 4.2zm-26.8 4.9c4.2-4.2 4.2-9.7 0-13.9s-9.7-4.2-13.9 0c-4.2 4.2-4.2 9.7 0 13.9 4.2 4.2 9.8 4.2 14 0z"/>
  </g>
</svg>